<svg width="1440" height="600" viewBox="0 0 1440 600" fill="none" xmlns="http://www.w3.org/2000/svg">
<g clip-path="url(#clip0_78_27)">
<rect width="1440" height="600" fill="white"/>
<rect width="1440" height="600" fill="#FB8500"/>
<circle cx="1380" cy="582" r="137" stroke="#D77200" stroke-width="50"/>
<circle cx="1380" cy="582" r="239" stroke="#D77200" stroke-width="50"/>
<circle cx="679.014" cy="16.0442" r="10" transform="rotate(-37.2809 679.014 16.0442)" fill="#D77200"/>
<circle cx="697.186" cy="39.9144" r="10" transform="rotate(-37.2809 697.186 39.9144)" fill="#D77200"/>
<circle cx="715.357" cy="63.7847" r="10" transform="rotate(-37.2809 715.357 63.7847)" fill="#D77200"/>
<circle cx="751.701" cy="111.525" r="10" transform="rotate(-37.2809 751.701 111.525)" fill="#D77200"/>
<circle cx="733.529" cy="87.655" r="10" transform="rotate(-37.2809 733.529 87.655)" fill="#D77200"/>
<circle cx="769.872" cy="135.395" r="10" transform="rotate(-37.2809 769.872 135.395)" fill="#D77200"/>
<circle cx="810.838" cy="-8.90211" r="10" transform="rotate(-37.2809 810.838 -8.90211)" fill="#D77200"/>
<circle cx="847.182" cy="38.8384" r="10" transform="rotate(-37.2809 847.182 38.8384)" fill="#D77200"/>
<circle cx="829.01" cy="14.9682" r="10" transform="rotate(-37.2809 829.01 14.9682)" fill="#D77200"/>
<circle cx="865.354" cy="62.7087" r="10" transform="rotate(-37.2809 865.354 62.7087)" fill="#D77200"/>
<circle cx="744.926" cy="3.57103" r="10" transform="rotate(-37.2809 744.926 3.57103)" fill="#D77200"/>
<circle cx="763.098" cy="27.4413" r="10" transform="rotate(-37.2809 763.098 27.4413)" fill="#D77200"/>
<circle cx="799.441" cy="75.1818" r="10" transform="rotate(-37.2809 799.441 75.1818)" fill="#D77200"/>
<circle cx="781.27" cy="51.3116" r="10" transform="rotate(-37.2809 781.27 51.3116)" fill="#D77200"/>
<circle cx="817.613" cy="99.0521" r="10" transform="rotate(-37.2809 817.613 99.0521)" fill="#D77200"/>
<circle cx="894.922" cy="2.49504" r="10" transform="rotate(-37.2809 894.922 2.49504)" fill="#D77200"/>
<circle cx="913.094" cy="26.3653" r="10" transform="rotate(-37.2809 913.094 26.3653)" fill="#D77200"/>
<circle cx="702.884" cy="-2.12752" r="10" transform="rotate(-37.2809 702.884 -2.12752)" fill="#D77200"/>
<circle cx="721.056" cy="21.7427" r="10" transform="rotate(-37.2809 721.056 21.7427)" fill="#D77200"/>
<circle cx="739.228" cy="45.613" r="10" transform="rotate(-37.2809 739.228 45.613)" fill="#D77200"/>
<circle cx="775.571" cy="93.3535" r="10" transform="rotate(-37.2809 775.571 93.3535)" fill="#D77200"/>
<circle cx="757.399" cy="69.4833" r="10" transform="rotate(-37.2809 757.399 69.4833)" fill="#D77200"/>
<circle cx="793.743" cy="117.224" r="10" transform="rotate(-37.2809 793.743 117.224)" fill="#D77200"/>
<circle cx="871.052" cy="20.6667" r="10" transform="rotate(-37.2809 871.052 20.6667)" fill="#D77200"/>
<circle cx="852.88" cy="-3.20351" r="10" transform="rotate(-37.2809 852.88 -3.20351)" fill="#D77200"/>
<circle cx="889.224" cy="44.537" r="10" transform="rotate(-37.2809 889.224 44.537)" fill="#D77200"/>
<circle cx="786.968" cy="9.26958" r="10" transform="rotate(-37.2809 786.968 9.26958)" fill="#D77200"/>
<circle cx="823.312" cy="57.0101" r="10" transform="rotate(-37.2809 823.312 57.0101)" fill="#D77200"/>
<circle cx="805.14" cy="33.1399" r="10" transform="rotate(-37.2809 805.14 33.1399)" fill="#D77200"/>
<circle cx="841.483" cy="80.8804" r="10" transform="rotate(-37.2809 841.483 80.8804)" fill="#D77200"/>
<path d="M-54 420L154 628" stroke="#D77200" stroke-width="10" stroke-linecap="round"/>
<path d="M-18 408L190 616" stroke="#D77200" stroke-width="10" stroke-linecap="round"/>
</g>
<defs>
<clipPath id="clip0_78_27">
<rect width="1440" height="600" fill="white"/>
</clipPath>
</defs>
</svg>
