<svg width="500" height="501" viewBox="0 0 500 501" fill="none" xmlns="http://www.w3.org/2000/svg">
<path d="M244.99 480.314C369.282 480.314 470.04 422.142 470.04 350.384C470.04 278.626 369.282 220.454 244.99 220.454C120.698 220.454 19.94 278.626 19.94 350.384C19.94 422.142 120.698 480.314 244.99 480.314Z" fill="#F5F5F5"/>
<path d="M283.51 421.824C306.364 421.824 324.89 411.128 324.89 397.934C324.89 384.74 306.364 374.044 283.51 374.044C260.656 374.044 242.13 384.74 242.13 397.934C242.13 411.128 260.656 421.824 283.51 421.824Z" fill="#E0E0E0"/>
<path d="M391.16 407.674C414.014 407.674 432.54 396.978 432.54 383.784C432.54 370.59 414.014 359.894 391.16 359.894C368.306 359.894 349.78 370.59 349.78 383.784C349.78 396.978 368.306 407.674 391.16 407.674Z" fill="#E0E0E0"/>
<path d="M164.82 457.644C187.674 457.644 206.2 446.948 206.2 433.754C206.2 420.56 187.674 409.864 164.82 409.864C141.966 409.864 123.44 420.56 123.44 433.754C123.44 446.948 141.966 457.644 164.82 457.644Z" fill="#E0E0E0"/>
<path d="M97 355.194C97 355.194 95.92 329.934 85.33 315.874C74.74 301.814 61.76 299.794 55.33 303.754C50.63 306.634 51.26 315.194 59.39 320.754C67.52 326.314 83.19 340.564 85.64 349.854L97 355.194Z" fill="#37474F"/>
<path d="M90 351.514C89.8285 351.501 89.6687 351.422 89.5548 351.293C89.4408 351.164 89.3817 350.996 89.39 350.824C90.48 327.904 70.39 313.614 64.92 311.044C64.7631 310.97 64.6415 310.837 64.5816 310.675C64.5217 310.512 64.5283 310.332 64.6 310.174C64.6759 310.016 64.8104 309.895 64.9749 309.835C65.1393 309.775 65.3206 309.782 65.48 309.854C71.09 312.514 91.82 327.244 90.7 350.854C90.6897 351.027 90.6115 351.19 90.4823 351.306C90.3532 351.422 90.1835 351.482 90.01 351.474L90 351.514Z" fill="white"/>
<path d="M92 347.214C90.5562 347.194 89.168 346.655 88.09 345.694C86.86 344.344 86.96 342.274 86.39 340.534C85.46 337.674 82.64 335.734 79.7 335.124C76.719 334.659 73.6719 334.864 70.78 335.724C64.88 337.174 59.21 333.544 53.3 333.974C51.1676 334.042 49.0938 334.689 47.3 335.844C46.4153 336.429 45.6904 337.226 45.1911 338.162C44.6917 339.098 44.4335 340.143 44.44 341.204C44.6427 342.96 45.5171 344.569 46.88 345.694C48.2466 346.816 49.7524 347.757 51.36 348.494L56.55 351.144C57.4472 351.542 58.2745 352.083 59 352.744C59.6857 353.479 60.2028 354.354 60.5154 355.309C60.8281 356.264 60.9286 357.276 60.81 358.274C60.41 360.274 58.81 361.794 58.3 363.754C57.67 366.324 59.24 369.074 61.5 370.464C63.8474 371.735 66.527 372.258 69.18 371.964C71.83 371.814 74.45 371.284 77.1 371.234C78.8929 371.106 80.6848 371.498 82.26 372.364C84.0389 373.652 85.3206 375.513 85.89 377.634C86.2335 378.995 86.7796 380.296 87.51 381.494C88.4106 382.632 89.6233 383.484 91 383.944C93.6626 384.924 96.5874 384.924 99.25 383.944C101.44 383.104 102.51 380.634 103.33 378.494C104.149 376.254 104.54 373.879 104.48 371.494C104.354 365.364 102.969 359.326 100.41 353.754C99.18 351.194 97.41 348.634 94.69 347.754C93.8091 347.503 92.9096 347.322 92 347.214Z" fill="#455A64"/>
<path d="M97.68 374.694C97.5591 374.694 97.4411 374.657 97.3425 374.587C97.2439 374.517 97.1696 374.418 97.13 374.304C90.96 356.614 61.77 341.224 51.13 339.454C51.0545 339.442 50.9822 339.414 50.9172 339.374C50.8522 339.334 50.7958 339.281 50.7512 339.218C50.7067 339.156 50.6748 339.086 50.6574 339.011C50.64 338.937 50.6375 338.86 50.65 338.784C50.6625 338.709 50.6897 338.636 50.7301 338.571C50.7706 338.506 50.8234 338.45 50.8856 338.405C50.9478 338.361 51.0182 338.329 51.0927 338.311C51.1673 338.294 51.2445 338.292 51.32 338.304C62.2 340.104 91.97 355.834 98.32 373.914C98.3468 373.987 98.3587 374.064 98.355 374.142C98.3513 374.219 98.3321 374.295 98.2985 374.365C98.2649 374.435 98.2177 374.498 98.1595 374.549C98.1014 374.6 98.0335 374.639 97.96 374.664C97.8701 374.695 97.7744 374.705 97.68 374.694Z" fill="white"/>
<path d="M71.44 364.994C71.3283 364.985 71.2217 364.943 71.133 364.875C71.0444 364.806 70.9775 364.713 70.9405 364.608C70.9034 364.502 70.8979 364.388 70.9244 364.279C70.9509 364.17 71.0084 364.071 71.09 363.994C75.8629 360.692 81.5072 358.879 87.31 358.784C87.452 358.803 87.5824 358.872 87.6768 358.98C87.7713 359.088 87.8233 359.226 87.8233 359.369C87.8233 359.512 87.7713 359.651 87.6768 359.758C87.5824 359.866 87.452 359.935 87.31 359.954C81.7595 360.088 76.3662 361.825 71.78 364.954C71.6729 365 71.5548 365.014 71.44 364.994Z" fill="white"/>
<path d="M98 388.374C97.3711 387.947 96.8516 387.377 96.4833 386.712C96.115 386.047 95.9084 385.304 95.88 384.544V176.154C95.9235 175.371 96.1508 174.609 96.5434 173.929C96.936 173.25 97.483 172.673 98.14 172.244L343.3 30.6941C343.951 30.2841 344.703 30.0596 345.472 30.0449C346.242 30.0302 347.001 30.2258 347.668 30.6105C348.334 30.9953 348.883 31.5547 349.255 32.2285C349.628 32.9023 349.809 33.6649 349.78 34.4341V242.834C349.736 243.617 349.509 244.38 349.117 245.059C348.724 245.738 348.177 246.315 347.52 246.744L102.36 388.294C101.69 388.647 100.947 388.838 100.19 388.852C99.4324 388.866 98.6825 388.702 98 388.374Z" fill="#455A64"/>
<path d="M101.93 388.484H101.84C101.772 388.525 101.697 388.555 101.62 388.574H101.45C101.35 388.609 101.246 388.632 101.14 388.644C101.073 388.671 101.002 388.688 100.93 388.694L100.59 388.744C99.6977 388.865 98.7898 388.708 97.99 388.294C97.362 387.869 96.8436 387.301 96.4769 386.637C96.1102 385.973 95.9056 385.232 95.88 384.474V202.864L100.12 205.314V386.984C100.12 387.984 100.63 388.604 101.37 388.604C101.469 388.619 101.571 388.619 101.67 388.604C101.762 388.578 101.85 388.537 101.93 388.484Z" fill="#D7CB9D"/>
<path opacity="0.81" d="M101.93 388.484H101.84C101.772 388.525 101.697 388.555 101.62 388.574H101.45C101.35 388.609 101.246 388.632 101.14 388.644C101.073 388.671 101.002 388.688 100.93 388.694L100.59 388.744C99.6977 388.865 98.7898 388.708 97.99 388.294C97.362 387.869 96.8436 387.301 96.4769 386.637C96.1102 385.973 95.9056 385.232 95.88 384.474V202.864L100.12 205.314V386.984C100.12 387.984 100.63 388.604 101.37 388.604C101.469 388.619 101.571 388.619 101.67 388.604C101.762 388.578 101.85 388.537 101.93 388.484Z" fill="#E0E0E0"/>
<path d="M100.11 205.314L95.87 202.864V243.214L100.11 245.684V205.314Z" fill="#D7CB9D"/>
<path opacity="0.15" d="M100.11 205.314L95.87 202.864V243.214L100.11 245.684V205.314Z" fill="black"/>
<path d="M100.76 176.374C100.36 177.048 100.136 177.811 100.11 178.594V205.314L95.87 202.864V176.154C95.865 176.064 95.865 175.974 95.87 175.884C95.8894 175.696 95.9194 175.509 95.96 175.324C96.0846 174.835 96.2729 174.364 96.52 173.924L100.76 176.374Z" fill="#263238"/>
<path d="M349.78 34.4441V46.5041L170.07 150.254C168.83 150.974 167.82 150.384 167.82 148.954V144.384C167.82 142.954 166.82 142.384 165.56 143.084L110.83 174.694C110.173 175.123 109.626 175.7 109.233 176.379C108.841 177.059 108.614 177.821 108.57 178.604V183.164C108.528 183.947 108.302 184.708 107.911 185.387C107.52 186.066 106.975 186.644 106.32 187.074L100.11 190.694V178.694C100.152 177.912 100.378 177.15 100.769 176.471C101.16 175.792 101.705 175.214 102.36 174.784L347.53 33.1441C348.77 32.4241 349.78 33.0041 349.78 34.4441Z" fill="#37474F"/>
<path d="M349.79 242.844C349.745 243.626 349.517 244.386 349.124 245.063C348.732 245.741 348.186 246.316 347.53 246.744L102.36 388.294C101.12 389.004 100.11 388.424 100.11 386.984V190.694L106.32 187.114C107.56 186.394 109.58 175.454 110.83 174.734L164.64 143.664C165.89 142.944 168.83 151.024 170.07 150.304L349.78 46.5041V242.844H349.79Z" fill="#D7CB9D"/>
<path opacity="0.9" d="M349.79 242.844C349.745 243.626 349.517 244.386 349.124 245.063C348.732 245.741 348.186 246.316 347.53 246.744L102.36 388.294C101.12 389.004 100.11 388.424 100.11 386.984V190.694L106.32 187.114C107.56 186.394 109.58 175.454 110.83 174.734L164.64 143.664C165.89 142.944 168.83 151.024 170.07 150.304L349.78 46.5041V242.844H349.79Z" fill="white"/>
<g opacity="0.4">
<path d="M348.78 48.2341V242.844C348.731 243.444 348.548 244.026 348.243 244.545C347.938 245.065 347.52 245.509 347.02 245.844L101.86 387.424C101.709 387.526 101.532 387.585 101.35 387.594C101.12 387.594 101.11 387.094 101.11 386.984V191.224L106.82 187.924C107.7 187.414 108.26 185.664 109.52 181.164C109.977 179.225 110.607 177.331 111.4 175.504L164.77 144.694C165.409 145.565 165.984 146.48 166.49 147.434C167.94 149.974 168.74 151.294 169.9 151.294C170.134 151.293 170.364 151.235 170.57 151.124L348.78 48.2341ZM349.78 46.5041L170.07 150.254C170.014 150.268 169.956 150.268 169.9 150.254C168.64 150.254 166.08 143.524 164.81 143.524C164.754 143.51 164.696 143.51 164.64 143.524L110.83 174.694C109.58 175.414 107.56 186.354 106.32 187.074L100.11 190.694V386.984C100.11 387.984 100.62 388.594 101.35 388.594C101.703 388.579 102.047 388.476 102.35 388.294L347.53 246.744C348.186 246.316 348.732 245.741 349.124 245.063C349.517 244.386 349.745 243.626 349.79 242.844V46.5041H349.78Z" fill="#D7CB9D"/>
</g>
<path d="M100.11 205.314V245.684L349.78 101.554V61.1741L100.11 205.314Z" fill="#D7CB9D"/>
<path d="M349.78 46.5041V61.1741L100.11 205.314V190.694L104.74 188.014C105.98 187.294 106.4 186.194 106.99 184.104L108.57 178.644C109.06 176.744 109.57 175.454 110.83 174.734L164.64 143.664C165.89 142.944 166.87 142.864 167.82 144.434L169.75 147.934C170.45 149.164 170.81 149.884 172.05 149.164L349.78 46.5041Z" fill="#F0F0F0"/>
<path d="M339.2 42.0041C340.77 41.1041 342.04 41.8341 342.04 43.6441C341.987 44.6296 341.702 45.5887 341.208 46.4435C340.715 47.2984 340.027 48.0248 339.2 48.5641C337.64 49.4641 336.37 48.7341 336.37 46.9241C336.424 45.9397 336.708 44.9818 337.2 44.1273C337.691 43.2728 338.376 42.5456 339.2 42.0041Z" fill="#D7CB9D"/>
<path d="M329 47.8941C330.56 46.9941 331.83 47.7241 331.83 49.5341C331.776 50.5184 331.492 51.4763 331 52.3308C330.509 53.1853 329.824 53.9126 329 54.4541C327.43 55.3541 326.16 54.6241 326.16 52.8141C326.213 51.8285 326.498 50.8694 326.992 50.0146C327.485 49.1598 328.173 48.4333 329 47.8941Z" fill="#D7CB9D"/>
<path d="M318.77 53.7841C320.33 52.8841 321.61 53.6141 321.61 55.4241C321.554 56.4091 321.268 57.3673 320.775 58.2218C320.282 59.0762 319.595 59.8031 318.77 60.3441C317.2 61.2541 315.93 60.5141 315.93 58.7041C315.983 57.7185 316.268 56.7594 316.762 55.9046C317.255 55.0498 317.943 54.3233 318.77 53.7841Z" fill="#D7CB9D"/>
<path opacity="0.5" d="M110.45 191.694L106.91 193.694L108.26 191.104C108.313 191.006 108.341 190.896 108.341 190.784C108.341 190.672 108.313 190.562 108.26 190.464C108.16 190.344 107.98 190.464 107.86 190.654L105.94 194.354C105.936 194.401 105.936 194.448 105.94 194.494C105.936 194.557 105.936 194.621 105.94 194.684C105.934 194.741 105.934 194.798 105.94 194.854C105.935 194.881 105.935 194.908 105.94 194.934L107.86 196.414C107.889 196.432 107.921 196.441 107.955 196.441C107.989 196.441 108.021 196.432 108.05 196.414C108.142 196.339 108.214 196.243 108.26 196.134C108.36 195.894 108.35 195.624 108.26 195.534L106.91 194.534L110.45 192.534C110.543 192.462 110.617 192.37 110.668 192.264C110.718 192.158 110.743 192.041 110.74 191.924C110.74 191.694 110.61 191.614 110.45 191.694Z" fill="#455A64"/>
<path opacity="0.5" d="M113.41 189.994L116.95 187.994L115.6 186.994C115.48 186.904 115.47 186.634 115.6 186.394C115.73 186.154 115.88 186.024 116 186.114L117.92 187.594C117.945 187.612 117.966 187.636 117.98 187.664C117.991 187.717 117.991 187.771 117.98 187.824C117.99 187.887 117.99 187.951 117.98 188.014C117.98 188.014 117.98 188.014 117.98 188.064C117.964 188.112 117.944 188.159 117.92 188.204L116 191.864C115.958 191.954 115.893 192.03 115.81 192.084C115.782 192.112 115.744 192.127 115.705 192.127C115.666 192.127 115.628 192.112 115.6 192.084C115.544 191.987 115.514 191.876 115.514 191.764C115.514 191.652 115.544 191.541 115.6 191.444L116.95 188.844L113.41 190.894C113.25 190.984 113.13 190.894 113.13 190.614C113.124 190.496 113.146 190.378 113.195 190.27C113.243 190.162 113.317 190.068 113.41 189.994Z" fill="#455A64"/>
<path opacity="0.5" d="M125 179.794C125 179.584 124.79 179.614 124.7 179.844L124.21 181.034C123.38 180.944 122.38 181.744 121.7 183.184C120.83 185.034 120.83 187.184 121.7 188.074C121.914 188.274 122.19 188.393 122.482 188.411C122.774 188.43 123.063 188.346 123.3 188.174C124.007 187.7 124.56 187.029 124.89 186.244C124.945 186.15 124.975 186.043 124.975 185.934C124.975 185.825 124.945 185.718 124.89 185.624C124.77 185.514 124.59 185.624 124.48 185.854C123.83 187.234 122.76 187.854 122.11 187.224C121.46 186.594 121.45 184.954 122.11 183.564C122.57 182.564 123.24 181.994 123.83 181.964L123.46 182.854C123.37 183.084 123.46 183.304 123.6 183.204L125.05 182.264C125.105 182.214 125.149 182.152 125.176 182.083C125.204 182.013 125.216 181.939 125.21 181.864L125 179.794Z" fill="#455A64"/>
<path opacity="0.5" d="M163.09 150.314L164.38 147.574C164.456 147.445 164.495 147.299 164.495 147.149C164.495 147 164.456 146.853 164.38 146.724C164.23 146.584 163.98 146.724 163.83 147.044L162.54 149.774L161.24 148.534C161.09 148.384 160.84 148.534 160.69 148.854C160.614 148.983 160.575 149.13 160.575 149.279C160.575 149.429 160.614 149.575 160.69 149.704L161.98 150.944L160.69 153.694C160.614 153.823 160.575 153.97 160.575 154.119C160.575 154.269 160.614 154.415 160.69 154.544C160.729 154.577 160.779 154.594 160.83 154.594C160.881 154.594 160.931 154.577 160.97 154.544C161.094 154.467 161.189 154.351 161.24 154.214L162.54 151.474L163.83 152.724C163.868 152.756 163.916 152.773 163.965 152.773C164.014 152.773 164.062 152.756 164.1 152.724C164.225 152.645 164.322 152.53 164.38 152.394C164.456 152.265 164.495 152.119 164.495 151.969C164.495 151.82 164.456 151.673 164.38 151.544L163.09 150.314Z" fill="#455A64"/>
<path d="M129.73 183.154V178.594C129.776 177.812 130.006 177.051 130.4 176.373C130.794 175.696 131.342 175.121 132 174.694L334.85 57.6941C336.1 56.9741 337.11 57.5541 337.11 58.9941V63.4941C337.066 64.2774 336.839 65.0395 336.447 65.7188C336.054 66.398 335.507 66.9754 334.85 67.4041L132 184.464C130.74 185.184 129.73 184.594 129.73 183.154Z" fill="white"/>
<path d="M331.76 67.694C331.707 67.7046 331.653 67.7046 331.6 67.694C331.494 67.6411 331.409 67.5542 331.358 67.4473C331.308 67.3404 331.294 67.2195 331.32 67.1041L331.54 65.214L330.62 64.554C330.554 64.5061 330.502 64.4426 330.467 64.3693C330.432 64.296 330.416 64.2151 330.42 64.134C330.421 63.9965 330.451 63.8607 330.51 63.7363C330.569 63.6119 330.654 63.5019 330.76 63.414L332.08 62.414C332.124 62.3741 332.156 62.3219 332.17 62.264L332.76 60.324C332.794 60.1826 332.867 60.0536 332.972 59.9526C333.076 59.8516 333.207 59.7827 333.35 59.754C333.439 59.751 333.527 59.774 333.604 59.8201C333.68 59.8663 333.741 59.9337 333.78 60.014L334.31 61.154L335.51 60.694C335.594 60.6579 335.688 60.6491 335.778 60.6688C335.867 60.6886 335.949 60.7358 336.01 60.804C336.089 60.9245 336.131 61.0652 336.131 61.209C336.131 61.3529 336.089 61.4936 336.01 61.614L335.01 63.414C335 63.4669 335 63.5212 335.01 63.574L335.24 65.2041C335.254 65.3374 335.238 65.4722 335.193 65.5985C335.148 65.7248 335.075 65.8394 334.98 65.934C334.927 65.9975 334.859 66.0471 334.782 66.0784C334.706 66.1098 334.622 66.122 334.54 66.114L333.35 65.964L332.2 67.504C332.144 67.5652 332.076 67.6139 332.001 67.6466C331.925 67.6794 331.843 67.6956 331.76 67.694ZM331 64.0241L331.92 64.6841C331.997 64.7486 332.056 64.8329 332.089 64.9279C332.123 65.023 332.13 65.1253 332.11 65.224L332 66.784L333 65.5241C333.057 65.4428 333.134 65.3773 333.223 65.3336C333.312 65.2899 333.411 65.2694 333.51 65.2741L334.7 65.4241C334.7 65.4241 334.75 65.264 334.7 65.184L334.47 63.554C334.454 63.3736 334.492 63.1926 334.58 63.034L335.58 61.234L334.48 61.654C334.428 61.677 334.371 61.6893 334.314 61.6901C334.257 61.6909 334.2 61.6803 334.147 61.6589C334.094 61.6375 334.045 61.6057 334.005 61.5653C333.964 61.525 333.932 61.477 333.91 61.424L333.42 60.424L332.83 62.364C332.781 62.5424 332.676 62.7002 332.53 62.814L331.21 63.814C331.117 63.8561 331.042 63.9308 331 64.0241Z" fill="#E0E0E0"/>
<g opacity="0.5">
<path d="M339.75 57.0741C339.577 57.0758 339.408 57.0199 339.27 56.9152C339.132 56.8104 339.033 56.6627 338.988 56.4954C338.944 56.3281 338.956 56.1507 339.023 55.9911C339.091 55.8315 339.209 55.6989 339.36 55.6141L345.7 51.9541C345.789 51.9022 345.887 51.8683 345.988 51.8543C346.09 51.8403 346.194 51.8465 346.293 51.8725C346.392 51.8985 346.486 51.9438 346.567 52.0058C346.649 52.0679 346.718 52.1454 346.77 52.2341C346.822 52.3227 346.856 52.4207 346.87 52.5224C346.884 52.6242 346.878 52.7277 346.852 52.8271C346.826 52.9264 346.78 53.0197 346.718 53.1015C346.656 53.1834 346.579 53.2522 346.49 53.3041L340.14 56.9741C340.021 57.041 339.887 57.0754 339.75 57.0741Z" fill="#455A64"/>
<path d="M339.75 60.7441C339.613 60.7439 339.477 60.7078 339.358 60.6394C339.239 60.571 339.14 60.4726 339.07 60.3541C339.018 60.2649 338.985 60.1664 338.971 60.0642C338.958 59.962 338.965 59.8581 338.992 59.7586C339.019 59.6591 339.065 59.5659 339.128 59.4845C339.192 59.403 339.27 59.3349 339.36 59.2841L345.7 55.6141C345.879 55.5321 346.081 55.5195 346.269 55.5788C346.456 55.6382 346.614 55.7652 346.713 55.9351C346.812 56.105 346.843 56.3056 346.802 56.4977C346.761 56.6898 346.65 56.8597 346.49 56.9741L340.14 60.6341C340.022 60.704 339.887 60.742 339.75 60.7441Z" fill="#455A64"/>
<path d="M339.75 64.4041C339.613 64.4039 339.477 64.3678 339.358 64.2994C339.239 64.231 339.14 64.1326 339.07 64.0141C339.018 63.9257 338.985 63.8279 338.972 63.7264C338.959 63.625 338.966 63.5219 338.993 63.4232C339.02 63.3245 339.066 63.2322 339.129 63.1517C339.192 63.0711 339.271 63.0039 339.36 62.9541L345.7 59.2841C345.789 59.2322 345.887 59.1983 345.988 59.1843C346.09 59.1703 346.194 59.1765 346.293 59.2025C346.392 59.2285 346.486 59.2738 346.567 59.3358C346.649 59.3979 346.718 59.4754 346.77 59.5641C346.822 59.6527 346.856 59.7507 346.87 59.8525C346.884 59.9542 346.878 60.0577 346.852 60.1571C346.826 60.2564 346.78 60.3497 346.718 60.4315C346.656 60.5134 346.579 60.5822 346.49 60.6341L340.14 64.3041C340.021 64.371 339.887 64.4055 339.75 64.4041Z" fill="#455A64"/>
</g>
<path d="M100.11 190.644V205.314L95.87 202.864V188.204L100.11 190.644Z" fill="#E0E0E0"/>
<path opacity="0.1" d="M110.94 255.204L179.99 215.334V327.904L110.74 367.664L110.94 255.204Z" fill="#D7CB9D"/>
<path opacity="0.15" d="M195.21 208.624L278.51 160.534C280.19 159.534 281.51 160.294 281.51 162.164C281.447 163.199 281.143 164.204 280.622 165.1C280.102 165.996 279.378 166.758 278.51 167.324L195.2 215.954C193.53 216.954 192.2 216.154 192.2 214.224V213.874C192.256 212.825 192.558 211.803 193.081 210.891C193.603 209.979 194.333 209.203 195.21 208.624Z" fill="#D7CB9D"/>
<path opacity="0.1" d="M194.34 223.194L332.18 143.614C333.38 142.924 334.35 143.414 334.35 144.704C334.297 145.433 334.073 146.138 333.696 146.764C333.319 147.389 332.8 147.917 332.18 148.304L194.34 227.884C193.15 228.574 192.18 228.084 192.18 226.794C192.232 226.067 192.455 225.362 192.831 224.736C193.206 224.111 193.723 223.583 194.34 223.194Z" fill="#D7CB9D"/>
<path opacity="0.1" d="M194.34 232.614L332.18 153.034C333.38 152.344 334.35 152.834 334.35 154.124C334.297 154.853 334.073 155.558 333.696 156.184C333.319 156.809 332.8 157.337 332.18 157.724L194.34 237.304C193.15 237.994 192.18 237.504 192.18 236.204C192.234 235.478 192.458 234.776 192.833 234.152C193.208 233.528 193.724 233.002 194.34 232.614Z" fill="#D7CB9D"/>
<path opacity="0.1" d="M194.34 242.024L332.18 162.444C333.38 161.754 334.35 162.244 334.35 163.544C334.296 164.271 334.071 164.975 333.694 165.598C333.317 166.222 332.798 166.748 332.18 167.134L194.34 246.694C193.15 247.384 192.18 246.894 192.18 245.594C192.239 244.872 192.464 244.174 192.839 243.554C193.214 242.935 193.728 242.411 194.34 242.024Z" fill="#D7CB9D"/>
<path opacity="0.1" d="M194.34 251.444L332.18 171.864C333.38 171.174 334.35 171.664 334.35 172.954C334.297 173.683 334.073 174.388 333.696 175.014C333.319 175.64 332.8 176.167 332.18 176.554L194.34 256.134C193.15 256.824 192.18 256.334 192.18 255.044C192.232 254.317 192.455 253.612 192.831 252.986C193.206 252.361 193.723 251.833 194.34 251.444Z" fill="#D7CB9D"/>
<path opacity="0.1" d="M194.34 260.864L290.52 204.864C291.71 204.174 292.68 204.664 292.68 205.964C292.626 206.69 292.402 207.393 292.027 208.016C291.652 208.64 291.136 209.166 290.52 209.554L194.34 265.554C193.15 266.244 192.18 265.754 192.18 264.454C192.234 263.728 192.458 263.026 192.833 262.402C193.208 261.778 193.724 261.252 194.34 260.864Z" fill="#D7CB9D"/>
<path opacity="0.1" d="M194.34 279.694L332.18 200.114C333.38 199.424 334.35 199.914 334.35 201.204C334.297 201.933 334.073 202.638 333.696 203.264C333.319 203.89 332.8 204.417 332.18 204.804L194.34 284.384C193.15 285.074 192.18 284.584 192.18 283.294C192.232 282.567 192.455 281.862 192.831 281.236C193.206 280.611 193.723 280.083 194.34 279.694Z" fill="#D7CB9D"/>
<path opacity="0.1" d="M194.34 289.114L332.18 209.534C333.38 208.844 334.35 209.334 334.35 210.624C334.297 211.353 334.073 212.058 333.696 212.684C333.319 213.309 332.8 213.837 332.18 214.224L194.34 293.804C193.15 294.494 192.18 294.004 192.18 292.704C192.234 291.978 192.458 291.276 192.833 290.652C193.208 290.028 193.724 289.502 194.34 289.114Z" fill="#D7CB9D"/>
<path opacity="0.1" d="M194.34 298.524L332.18 218.944C333.38 218.254 334.35 218.744 334.35 220.044C334.296 220.771 334.071 221.475 333.694 222.098C333.317 222.722 332.798 223.248 332.18 223.634L194.34 303.224C193.15 303.914 192.18 303.424 192.18 302.124C192.234 301.397 192.458 300.693 192.833 300.068C193.208 299.443 193.724 298.914 194.34 298.524Z" fill="#D7CB9D"/>
<path opacity="0.1" d="M194.34 307.944L245 278.384C246.19 277.694 247.16 278.184 247.16 279.484C247.106 280.21 246.882 280.913 246.507 281.536C246.132 282.16 245.616 282.686 245 283.074L194.35 312.634C193.16 313.324 192.19 312.834 192.19 311.544C192.241 310.818 192.463 310.113 192.836 309.488C193.21 308.863 193.725 308.334 194.34 307.944Z" fill="#D7CB9D"/>
<path d="M378.54 253.894C385.87 230.114 393 214.444 385.73 209.594C378.97 210.854 375.94 214.204 374.5 223.124C372.99 232.474 369.85 245.514 368.02 253.034C366.438 259.318 364.175 265.411 361.27 271.204C360.832 272.006 360.123 272.627 359.27 272.954C357.01 273.844 355.93 274.954 354.09 276.314C352.64 277.314 351.58 277.454 351.65 277.884C351.769 278.367 352.072 278.784 352.494 279.045C352.917 279.307 353.425 279.393 353.91 279.284C354.996 279.079 356.054 278.743 357.06 278.284C356.195 280.475 354.849 282.444 353.12 284.044C349.57 287.044 350.12 289.974 355.81 290.314C357.81 290.434 362.58 288.574 366.97 281.104C368.454 278.32 369.76 275.444 370.88 272.494C373.94 264.834 377.07 258.694 378.54 253.894Z" fill="#FFA8A7"/>
<path d="M387 209.314C387 209.314 381.36 209.024 377.94 212.794C374.52 216.564 370.54 239.084 370.54 239.084C370.54 239.084 374.28 244.224 384.14 242.084L387 209.314Z" fill="#D7CB9D"/>
<path opacity="0.3" d="M387 209.314C387 209.314 381.36 209.024 377.94 212.794C374.52 216.564 370.54 239.084 370.54 239.084C370.54 239.084 374.28 244.224 384.14 242.084L387 209.314Z" fill="black"/>
<path d="M413.41 369.074H405.84V382.574H413.41V369.074Z" fill="#FFA8A7"/>
<path d="M387.16 368.354L379.59 368.634L379.21 354.344L387.16 354.074V368.354Z" fill="#FFA8A7"/>
<path d="M414.48 252.194C414.48 259.724 413.37 320.324 413.37 320.324C413.54 322.494 415.49 326.494 415.07 334.814C414.5 346.114 413.73 375.814 413.73 375.814C412.431 376.483 410.997 376.847 409.536 376.878C408.075 376.909 406.626 376.607 405.3 375.994C405.3 375.994 398.14 334.844 396.79 323.634C395.6 313.864 393.59 280.944 393.59 280.944L389.49 319.214C390.364 323.333 390.68 327.551 390.43 331.754C390.07 336.934 387.64 363.924 387.64 363.924C386.331 364.695 384.864 365.158 383.35 365.278C381.835 365.398 380.314 365.171 378.9 364.614C378.9 364.614 374.59 323.974 374.5 319.214C374.4 313.794 377.02 252.104 377.02 252.104L414.48 252.194Z" fill="#37474F"/>
<path d="M405.84 378.694V377.564C405.11 377.894 403.43 384.564 400.43 387.444C398.04 389.704 394.78 392.324 393.95 394.854C393.12 397.384 398.49 398.944 400.72 398.534C403.31 398.054 407.81 396.154 408.93 394.384C410.05 392.614 410.59 390.024 411.51 388.734C412.43 387.444 414.51 386.004 415.03 384.504C415.31 383.684 415.03 381.884 414.6 380.364C414.17 378.844 413.87 377.434 413.41 377.564V378.424C412.349 379.305 411.009 379.779 409.63 379.764C408.52 379.794 405.83 379.564 405.84 378.694Z" fill="#263238"/>
<path d="M379.51 366.194C379.12 366.194 378.8 366.784 377.93 367.764C376.645 369.12 375.14 370.249 373.48 371.104C370.64 372.584 365.13 374.854 362.63 376.024C361.08 376.754 361.15 378.714 362.76 379.834C364.37 380.954 368.26 381.754 372.93 380.664C375.47 380.074 378.79 377.664 380.88 377.754C382.97 377.844 386.88 377.864 388.45 376.754C390.02 375.644 389.38 373.274 388.94 371.234C388.46 369.014 387.87 365.544 387.16 365.694V366.464C386.25 367.894 381.55 368.464 379.55 367.464L379.51 366.194Z" fill="#263238"/>
<path d="M393.59 280.954C389.65 279.667 386.049 277.515 383.05 274.654C383.05 274.654 385.05 278.654 391.13 282.314L389.84 316.494L393.59 280.954Z" fill="#263238"/>
<path d="M410.54 211.114C410.54 211.114 416.46 211.664 416.04 222.944L414.73 240.944V267.944C409.16 274.254 384.48 273.784 376.03 267.434C376.03 267.434 376.98 235.504 377.55 223.214C377.96 214.484 379.97 210.084 388.55 209.124L399.1 209.584L410.54 211.114Z" fill="#D7CB9D"/>
<path opacity="0.3" d="M393.71 217.034L392.35 226.514L389.19 226.454L392.76 227.024L393.71 217.034Z" fill="black"/>
<path d="M401.61 185.694C401.672 188.746 400.519 191.698 398.406 193.901C396.293 196.104 393.392 197.378 390.34 197.444C384.11 197.444 379.34 192.174 379.06 185.704C378.57 174.234 384.11 173.954 390.34 173.954C393.39 174.02 396.29 175.293 398.403 177.494C400.515 179.695 401.669 182.644 401.61 185.694Z" fill="#263238"/>
<path d="M408 191.504C408 191.504 406.27 199.964 405.58 201.354C405.134 202.202 404.372 202.841 403.46 203.134L403.58 197.184L408 191.504Z" fill="#263238"/>
<path d="M405.86 179.384C405.86 179.384 407.1 179.074 408.42 181.134C409.55 182.894 409.81 186.854 408.03 191.504L404.78 191.894L405.86 179.384Z" fill="#263238"/>
<path d="M403.8 191.894C404.45 192.304 405.38 190.994 406.19 190.114C407 189.234 409.62 188.044 410.94 190.914C412.26 193.784 409.78 197.724 407.71 198.404C404.14 199.574 403.61 197.184 403.61 197.184L403.33 210.584C398.6 217.914 387.87 217.644 391.73 210.234V206.154C390.141 206.418 388.528 206.506 386.92 206.414C384.3 205.984 382.65 203.834 381.85 200.874C380.57 196.124 380.09 192.294 381.17 182.944C382.37 172.694 393.81 172.604 400 176.694C406.19 180.784 403.8 191.894 403.8 191.894Z" fill="#FFA8A7"/>
<path d="M403.39 207.584C402.29 209.836 400.709 211.819 398.76 213.394C397.103 214.618 395.181 215.434 393.15 215.774C394.826 216.91 396.199 218.437 397.15 220.224C398.34 222.824 406.67 215.654 406.59 210.564C406.59 210.564 405.29 205.454 403.49 205.134L403.39 207.584Z" fill="#263238"/>
<path d="M393.15 215.774C393.15 215.774 390.58 214.504 391.73 210.234V206.154L390.6 206.304C389.283 207.587 388.348 209.211 387.9 210.994C387.64 212.164 387 218.084 388.13 219.254C389.26 220.424 390.84 216.094 393.15 215.774Z" fill="#263238"/>
<path d="M399.42 180.694C399.712 180.63 400.017 180.648 400.3 180.744C401.3 181.184 401.48 184.204 401.65 185.074C402.22 188.004 402.7 192.974 403.8 192.994C404.13 192.994 405.38 190.844 406.19 190.074C407.32 189.004 405.86 179.344 405.86 179.344C406.158 178.51 406.215 177.609 406.024 176.744C405.833 175.879 405.402 175.085 404.78 174.454C402.78 172.134 399.56 171.614 396.65 171.454C393.22 171.264 389.74 171.524 386.36 170.774C385.298 170.479 384.22 170.249 383.13 170.084C383.084 170.065 383.035 170.055 382.985 170.055C382.935 170.055 382.886 170.065 382.84 170.084C382.73 170.174 382.75 170.344 382.78 170.484C382.992 171.497 383.349 172.474 383.84 173.384C381.828 173.225 379.841 172.833 377.92 172.214C377.809 172.18 377.691 172.18 377.58 172.214C377.35 172.284 377.31 172.584 377.33 172.824C377.46 175.244 378.61 178.904 380.58 180.324C382.326 181.467 384.354 182.108 386.44 182.174C391.74 182.374 395 181.254 399.42 180.694Z" fill="#263238"/>
<path d="M405.86 179.894L409.81 177.684C409.689 177.412 409.513 177.168 409.293 176.968C409.073 176.768 408.813 176.616 408.531 176.522C408.248 176.428 407.95 176.394 407.653 176.422C407.357 176.45 407.07 176.539 406.81 176.684C406.284 177.009 405.897 177.515 405.722 178.108C405.546 178.7 405.596 179.336 405.86 179.894Z" fill="#263238"/>
<path d="M391.74 206.154C391.74 206.154 397.59 204.924 399.64 203.794C400.854 203.126 401.84 202.109 402.47 200.874C402.165 202.116 401.618 203.285 400.86 204.314C399.37 206.314 391.74 207.774 391.74 207.774V206.154Z" fill="#F28F8F"/>
<path d="M393.15 190.374C393.171 190.6 393.258 190.814 393.398 190.991C393.539 191.169 393.728 191.302 393.943 191.374C394.158 191.445 394.389 191.454 394.608 191.397C394.828 191.34 395.026 191.221 395.178 191.053C395.331 190.886 395.432 190.678 395.469 190.455C395.506 190.231 395.477 190.002 395.386 189.795C395.296 189.587 395.146 189.411 394.957 189.286C394.768 189.162 394.546 189.095 394.32 189.094C394.158 189.099 393.999 189.137 393.853 189.204C393.706 189.272 393.574 189.368 393.465 189.487C393.356 189.606 393.272 189.746 393.218 189.899C393.164 190.051 393.141 190.213 393.15 190.374Z" fill="#263238"/>
<path d="M395 185.314L397.51 186.754C397.691 186.408 397.74 186.007 397.646 185.627C397.552 185.248 397.322 184.916 397 184.694C396.832 184.587 396.643 184.517 396.445 184.49C396.247 184.464 396.046 184.481 395.856 184.54C395.666 184.599 395.49 184.699 395.342 184.832C395.195 184.966 395.078 185.131 395 185.314Z" fill="#263238"/>
<path d="M392.27 198.814L389.59 199.814C389.643 199.998 389.733 200.169 389.855 200.317C389.977 200.465 390.128 200.586 390.298 200.674C390.469 200.761 390.656 200.812 390.847 200.824C391.038 200.836 391.23 200.809 391.41 200.744C391.766 200.585 392.051 200.3 392.21 199.944C392.369 199.588 392.39 199.185 392.27 198.814Z" fill="#F28F8F"/>
<path d="M382.38 186.384L384.67 184.544C384.567 184.383 384.43 184.246 384.27 184.141C384.11 184.037 383.929 183.967 383.74 183.938C383.551 183.909 383.358 183.92 383.173 183.971C382.989 184.022 382.817 184.112 382.67 184.234C382.364 184.493 382.166 184.856 382.112 185.253C382.058 185.65 382.154 186.053 382.38 186.384Z" fill="#263238"/>
<path d="M383.39 190.024C383.383 190.184 383.408 190.343 383.464 190.493C383.519 190.643 383.603 190.781 383.712 190.898C383.821 191.015 383.952 191.11 384.097 191.176C384.243 191.242 384.4 191.279 384.56 191.284C384.897 191.284 385.22 191.15 385.458 190.912C385.696 190.674 385.83 190.351 385.83 190.014C385.83 189.677 385.696 189.354 385.458 189.116C385.22 188.878 384.897 188.744 384.56 188.744C384.236 188.762 383.933 188.906 383.714 189.146C383.495 189.385 383.379 189.7 383.39 190.024Z" fill="#263238"/>
<path d="M389.67 189.044L389.53 196.454L385.32 195.484L389.67 189.044Z" fill="#F28F8F"/>
<path d="M422.06 196.494C423.75 194.254 427.17 199.224 428.75 202.654C430.33 206.084 430.36 208.024 429.06 209.384C427.76 210.744 425.31 209.924 422.86 206.674C420.41 203.424 421.09 198.144 422.06 196.494Z" fill="#D7CB9D"/>
<path opacity="0.5" d="M422.06 196.494C423.75 194.254 427.17 199.224 428.75 202.654C430.33 206.084 430.36 208.024 429.06 209.384C427.76 210.744 425.31 209.924 422.86 206.674C420.41 203.424 421.09 198.144 422.06 196.494Z" fill="black"/>
<path d="M434 197.154C428 211.154 419.65 219.044 415.9 228.054C410.99 227.724 407.16 215.854 410.82 210.784C410.82 210.784 425.2 195.214 426.5 189.094C427.66 183.664 429.21 174.704 429.08 170.094C429.028 169.343 428.713 168.635 428.19 168.094C426.68 166.464 426.68 165.164 425.71 163.374C424.96 161.974 424.13 161.454 424.37 161.134C424.681 160.801 425.106 160.598 425.56 160.565C426.014 160.531 426.464 160.67 426.82 160.954C427.514 161.462 428.136 162.06 428.67 162.734C428.855 160.937 428.562 159.122 427.82 157.474C426.15 153.694 426.56 151.774 431.65 153.114C434.85 153.964 436.85 156.624 437.33 164.294C437.552 167.486 437.572 170.689 437.39 173.884C436.83 179.794 436.48 185.954 435.75 190.884C435.435 193.04 434.847 195.147 434 197.154Z" fill="#FFA8A7"/>
<path d="M409.32 210.954L422 196.454C422 196.454 420.49 199.984 423.79 205.134C427.09 210.284 429.05 209.384 429.05 209.384C429.05 209.384 421.56 220.314 419.56 223.974C417.56 227.634 415.47 230.724 415.47 230.724C415.249 231.151 414.905 231.502 414.482 231.732C414.06 231.962 413.579 232.06 413.1 232.014C411.24 232.014 406.31 223.754 409.32 210.954Z" fill="#D7CB9D"/>
<path opacity="0.3" d="M409.32 210.954L422 196.454C422 196.454 420.49 199.984 423.79 205.134C427.09 210.284 429.05 209.384 429.05 209.384C429.05 209.384 421.56 220.314 419.56 223.974C417.56 227.634 415.47 230.724 415.47 230.724C415.249 231.151 414.905 231.502 414.482 231.732C414.06 231.962 413.579 232.06 413.1 232.014C411.24 232.014 406.31 223.754 409.32 210.954Z" fill="black"/>
<path d="M306.42 243.544L312.39 251.494L305.97 258.844L297.7 249.174L306.42 243.544Z" fill="#F28F8F"/>
<path d="M286.87 225.464C292.08 225.704 294.56 226.464 297.29 229.724C300.02 232.984 313.66 252.694 313.66 252.694C313.66 252.694 311.25 259.454 305.97 258.874L296.38 248.984L286.87 225.464Z" fill="#455A64"/>
<path d="M261.31 390.584C260.939 392.658 260.739 394.758 260.71 396.864C260.64 400.664 259.94 402.024 259.85 405.144C259.74 408.714 260.36 410.054 261.85 412.054C263.34 414.054 267.1 415.884 268.71 412.494C270.32 409.104 270.11 406.884 269.59 403.374C269.07 399.864 268.99 397.754 268.69 394.994C268.41 392.554 268.09 390.704 268.09 390.704L261.31 390.584Z" fill="#263238"/>
<path d="M272.12 360.694L259.57 360.464C259.76 368.844 261.09 382.784 261.31 390.634C261.31 392.114 261.31 402.124 261.83 405.174C262.67 409.744 268.09 409.124 268.38 406.394C268.67 403.664 268.03 391.964 268.05 390.754C268 385.754 270.36 372.574 271.6 363.524C271.66 363.034 272.06 361.074 272.12 360.694Z" fill="#FFBDA7"/>
<path d="M290.55 384.074C290.55 384.074 289.91 384.074 289.8 384.634C289.69 385.194 289.65 386.254 289.39 387.294C288.964 388.924 288.815 390.615 288.95 392.294C289.16 393.464 291.83 395.204 293.66 395.514C295.49 395.824 298.06 397.624 299.49 398.974C301.786 400.87 304.627 401.983 307.6 402.154C310.6 402.154 312.77 401.154 313.77 399.514C314.77 397.874 312.86 397.684 309.38 395.424L306.67 393.664C301.16 390.064 299.14 388.134 297.58 384.534L290.55 384.074Z" fill="#263238"/>
<path d="M297.62 382.114C297.53 379.514 298.85 360.414 298.85 360.414L288.06 361.634C290.62 376.854 290.82 382.044 290.53 384.264C290.476 384.469 290.452 384.682 290.46 384.894C290.46 387.894 293.81 389.454 296.46 391.424C297.46 392.204 300.13 394.604 303.23 395.654C305.23 396.344 308.94 396.654 309.41 395.384C306.25 392.964 301.93 389.804 299.41 387.034C298.17 385.694 297.71 384.694 297.62 382.114Z" fill="#FFBDA7"/>
<path d="M262.48 274.054C256.6 286.914 262.7 332.194 262.7 332.194C262.52 334.284 260.13 338.384 259.25 347.574C258.2 358.414 261.18 387.464 261.18 387.464C262.231 388.101 263.431 388.451 264.66 388.477C265.889 388.503 267.103 388.206 268.18 387.614C268.18 387.614 275.77 344.934 277.18 334.154C278.37 324.734 280.65 304.034 280.65 304.034L287.13 334.094C286.18 337.13 285.491 340.241 285.07 343.394C284.46 349.734 290.64 381.584 290.64 381.584C291.754 382.044 292.95 382.269 294.155 382.245C295.359 382.221 296.546 381.948 297.64 381.444C297.64 381.444 300.37 340.304 300.95 332.664C301.95 319.824 298.5 279.774 296.15 272.174L262.48 274.054Z" fill="#D7CB9D"/>
<path opacity="0.5" d="M262.48 274.054C256.6 286.914 262.7 332.194 262.7 332.194C262.52 334.284 260.13 338.384 259.25 347.574C258.2 358.414 261.18 387.464 261.18 387.464C262.231 388.101 263.431 388.451 264.66 388.477C265.889 388.503 267.103 388.206 268.18 387.614C268.18 387.614 275.77 344.934 277.18 334.154C278.37 324.734 280.65 304.034 280.65 304.034L287.13 334.094C286.18 337.13 285.491 340.241 285.07 343.394C284.46 349.734 290.64 381.584 290.64 381.584C291.754 382.044 292.95 382.269 294.155 382.245C295.359 382.221 296.546 381.948 297.64 381.444C297.64 381.444 300.37 340.304 300.95 332.664C301.95 319.824 298.5 279.774 296.15 272.174L262.48 274.054Z" fill="black"/>
<path opacity="0.2" d="M280.63 304.034L282.54 292.094C282.54 292.094 290.62 290.424 294.29 286.974C291.759 289.942 288.447 292.142 284.73 293.324L282.58 302.524L286.34 330.354L280.63 304.034Z" fill="black"/>
<path d="M265.5 234.124L273.5 236.204V219.274C269.08 218.124 265.5 220.674 265.5 224.974V234.124Z" fill="#D7CB9D"/>
<path opacity="0.6" d="M265.5 234.124L273.5 236.204V219.274C269.08 218.124 265.5 220.674 265.5 224.974V234.124Z" fill="black"/>
<path d="M281.34 221.694L278.47 221.634C269.71 221.424 262.77 213.874 262.96 204.754C262.96 194.814 270.66 186.754 280.2 186.664C289.74 186.614 297.52 194.664 297.57 204.564V205.564C297.33 214.694 290.08 221.884 281.34 221.694Z" fill="#D7CB9D"/>
<path opacity="0.6" d="M281.34 221.694L278.47 221.634C269.71 221.424 262.77 213.874 262.96 204.754C262.96 194.814 270.66 186.754 280.2 186.664C289.74 186.614 297.52 194.664 297.57 204.564V205.564C297.33 214.694 290.08 221.884 281.34 221.694Z" fill="black"/>
<path d="M267.93 190.814C267.86 190.524 267.731 190.251 267.552 190.013C267.372 189.775 267.145 189.577 266.885 189.43C266.625 189.284 266.338 189.193 266.041 189.163C265.744 189.132 265.444 189.163 265.16 189.254L265.93 192.254C265.771 192.052 265.574 191.882 265.35 191.754C265.091 191.607 264.803 191.517 264.507 191.488C264.21 191.459 263.911 191.493 263.628 191.587C263.345 191.682 263.085 191.834 262.865 192.035C262.645 192.236 262.47 192.481 262.35 192.754L266.25 195.044C266.453 194.653 266.543 194.213 266.51 193.774C267.068 193.54 267.521 193.11 267.783 192.564C268.045 192.018 268.097 191.396 267.93 190.814Z" fill="#D7CB9D"/>
<path opacity="0.6" d="M267.93 190.814C267.86 190.524 267.731 190.251 267.552 190.013C267.372 189.775 267.145 189.577 266.885 189.43C266.625 189.284 266.338 189.193 266.041 189.163C265.744 189.132 265.444 189.163 265.16 189.254L265.93 192.254C265.771 192.052 265.574 191.882 265.35 191.754C265.091 191.607 264.803 191.517 264.507 191.488C264.21 191.459 263.911 191.493 263.628 191.587C263.345 191.682 263.085 191.834 262.865 192.035C262.645 192.236 262.47 192.481 262.35 192.754L266.25 195.044C266.453 194.653 266.543 194.213 266.51 193.774C267.068 193.54 267.521 193.11 267.783 192.564C268.045 192.018 268.097 191.396 267.93 190.814Z" fill="black"/>
<path d="M272.66 226.154C269.967 226.519 267.296 227.033 264.66 227.694C267.76 235.294 262.9 247.034 262.9 247.034L267.49 261.164C264.32 267.654 261.71 270.874 260.63 276.164C263.55 281.864 284.16 287.304 297.58 276.914C297.58 276.914 297.15 262.484 295.44 254.074C299.83 245.504 299.12 242.984 298.22 239.994C296.13 233.044 291.91 230.374 286.88 225.474L283.88 225.154L272.66 226.154Z" fill="#37474F"/>
<path d="M268 266.824C270.49 264.274 275.77 263.544 275.77 263.544L270.92 260.784L265.5 247.694C267.774 243.238 268.898 238.285 268.77 233.284L265.65 232.534C266.03 239.464 262.89 247.044 262.89 247.044L267.48 261.174C264.31 267.664 261.7 270.884 260.62 276.174C262.62 280.074 272.91 283.854 283.51 282.514C269.31 281.554 265.61 269.294 268 266.824Z" fill="#263238"/>
<path d="M282.35 282.624L282.93 282.564C282.735 282.568 282.541 282.588 282.35 282.624Z" fill="#E6E6E6"/>
<path d="M291.13 195.524C292.85 197.104 295 200.524 294.83 210.524C294.68 219.024 292.05 221.134 290.72 221.744C289.39 222.354 286.84 222.004 284.35 221.584V225.104C284.35 225.104 287.63 228.744 287.43 231.104C287.23 233.464 282.75 234.414 279.52 232.104C277.244 230.381 275.224 228.344 273.52 226.054V215.364C273.52 215.364 272.06 216.854 269.52 214.614C267.52 212.754 266.76 209.614 268.35 207.914C268.758 207.512 269.259 207.215 269.808 207.052C270.358 206.888 270.939 206.862 271.501 206.975C272.063 207.089 272.588 207.339 273.031 207.703C273.474 208.067 273.82 208.535 274.04 209.064C277.851 208.665 281.562 207.596 285 205.904C286.934 204.974 288.548 203.491 289.639 201.644C290.73 199.796 291.249 197.666 291.13 195.524Z" fill="#FFBDA7"/>
<path d="M284.34 208.614C284.339 208.808 284.282 208.998 284.175 209.16C284.069 209.323 283.917 209.45 283.739 209.528C283.561 209.605 283.364 209.629 283.172 209.597C282.981 209.564 282.803 209.477 282.661 209.345C282.518 209.213 282.417 209.042 282.37 208.854C282.323 208.665 282.332 208.467 282.395 208.284C282.459 208.1 282.574 207.939 282.728 207.82C282.882 207.701 283.066 207.63 283.26 207.614C283.534 207.608 283.8 207.709 284.002 207.896C284.203 208.083 284.325 208.34 284.34 208.614Z" fill="#263238"/>
<path d="M284.73 215.694L287.4 216.564C287.357 216.746 287.278 216.918 287.166 217.069C287.055 217.219 286.914 217.345 286.752 217.439C286.589 217.532 286.41 217.592 286.224 217.613C286.038 217.635 285.849 217.618 285.67 217.564C285.307 217.428 285.008 217.16 284.834 216.813C284.659 216.467 284.622 216.067 284.73 215.694Z" fill="#F79776"/>
<path d="M294 204.784L291.57 203.954C291.608 203.792 291.68 203.639 291.781 203.507C291.882 203.374 292.01 203.264 292.156 203.184C292.302 203.104 292.463 203.056 292.629 203.042C292.796 203.028 292.963 203.049 293.12 203.104C293.448 203.226 293.719 203.465 293.882 203.776C294.044 204.086 294.086 204.445 294 204.784Z" fill="#263238"/>
<path d="M274.05 208.114V211.704C274.28 211.714 274.51 211.676 274.725 211.593C274.941 211.511 275.137 211.385 275.301 211.224C275.466 211.063 275.596 210.87 275.684 210.657C275.771 210.443 275.814 210.214 275.81 209.984C275.813 209.506 275.632 209.045 275.305 208.697C274.977 208.348 274.527 208.14 274.05 208.114Z" fill="#D7CB9D"/>
<path opacity="0.6" d="M274.05 208.114V211.704C274.28 211.714 274.51 211.676 274.725 211.593C274.941 211.511 275.137 211.385 275.301 211.224C275.466 211.063 275.596 210.87 275.684 210.657C275.771 210.443 275.814 210.214 275.81 209.984C275.813 209.506 275.632 209.045 275.305 208.697C274.977 208.348 274.527 208.14 274.05 208.114Z" fill="black"/>
<path d="M293.12 208.264C293.142 208.552 293.049 208.836 292.862 209.056C292.674 209.275 292.408 209.411 292.12 209.434C291.9 209.456 291.678 209.411 291.483 209.305C291.289 209.2 291.13 209.039 291.028 208.842C290.925 208.646 290.884 208.424 290.909 208.204C290.934 207.984 291.024 207.776 291.168 207.608C291.312 207.44 291.503 207.318 291.716 207.259C291.93 207.201 292.156 207.207 292.366 207.277C292.575 207.348 292.759 207.479 292.894 207.655C293.028 207.831 293.107 208.043 293.12 208.264Z" fill="#263238"/>
<path d="M287.42 206.814L287.4 213.774L290.64 212.704L287.42 206.814Z" fill="#F79776"/>
<path d="M284.35 221.624C281.72 221.284 276.35 219.694 275.46 217.474C275.798 218.588 276.464 219.574 277.37 220.304C278.99 221.734 284.37 223.304 284.37 223.304L284.35 221.624Z" fill="#F79776"/>
<path d="M252.35 261.694C252.35 261.694 258.77 270.814 259.87 272.004C260.97 273.194 261.73 272.794 262.92 272.264C264.371 271.678 265.862 271.193 267.38 270.814C269.38 270.324 269.76 272.134 267.82 273.424C266.42 274.364 264.82 274.764 265.48 275.534C266.848 276.773 268.435 277.746 270.16 278.404C274.9 280.274 274.53 281.214 273.66 282.744C272.9 284.084 270.66 286.964 262.22 283.564C258.72 282.154 253.8 278.164 251.48 275.564C248.13 271.854 242.9 265.204 242.9 265.204L252.35 261.694Z" fill="#FFBDA7"/>
<path d="M265.89 227.364C263.57 227.514 259.2 228.074 253.72 237.174C248.91 245.174 241.46 255.984 240.08 259.854C239.52 261.424 241.7 264.674 244.51 268.004C248.34 267.834 251.83 265.184 253.64 263.064C253.165 261.936 252.575 260.861 251.88 259.854L263.12 247.034C263.12 247.034 267.39 243.124 268.28 238.034C269.24 232.514 268.94 228.174 265.89 227.364Z" fill="#455A64"/>
<path d="M328.82 244.624L301.11 251.924L293.48 283.274L319.83 275.624L328.82 244.624Z" fill="#D7CB9D"/>
<path opacity="0.25" d="M328.82 244.624L301.11 251.924L293.48 283.274L319.83 275.624L328.82 244.624Z" fill="black"/>
<g opacity="0.1">
<path d="M316.3 266.824C316.764 267.792 317.503 268.602 318.424 269.153C319.345 269.705 320.408 269.973 321.48 269.924L321.68 269.234L316.3 266.824Z" fill="black"/>
</g>
<g opacity="0.1">
<path d="M320.47 249.604L320.7 248.544C320.83 247.964 319.2 247.934 317.07 248.544L312.98 249.544C310.85 250.104 308.98 251.024 308.89 251.604L308.67 252.664L320.47 249.604Z" fill="black"/>
</g>
<path d="M322.6 245.634C322.68 245.264 322.02 245.164 321.13 245.414L319.51 245.864C319.51 245.864 319.99 243.574 316.41 244.374C315.449 244.516 314.541 244.903 313.773 245.499C313.006 246.094 312.405 246.878 312.03 247.774L310.31 248.264C309.31 248.534 308.49 249.044 308.38 249.404L308.17 250.064L322.45 246.304L322.6 245.634Z" fill="#37474F"/>
<path d="M320.63 246.754C319.33 247.074 318.78 247.244 318.63 248.144C318.48 249.044 318.31 249.924 318.31 249.924L312 251.594C312 251.594 312.31 250.294 312.41 249.794C312.51 249.294 312.29 248.974 311.28 249.244L311.2 248.844L321.1 246.314L320.63 246.754Z" fill="#37474F"/>
<path d="M320.85 249.694L321.08 248.634C321.21 248.054 319.58 248.024 317.45 248.634L313.36 249.634C311.23 250.194 309.36 251.114 309.27 251.694L309.05 252.754L320.85 249.694Z" fill="#37474F"/>
<path d="M325.9 254.694C325.9 254.694 324.9 258.244 324.63 259.084C324.36 259.924 321.28 261.454 319.25 262.014C317.22 262.574 314.98 263.234 315.95 266.084C316.83 268.714 320.19 269.314 321.89 269.234C323.59 269.154 325.94 267.534 326.89 264.904C328.06 261.544 327.43 257.964 327.89 256.004C328.35 254.044 326.92 253.524 325.9 254.694Z" fill="#FFBDA7"/>
<path d="M220.93 255.524C217.13 251.694 215.77 253.184 215.29 257.384C215.112 259.146 214.685 260.873 214.02 262.514C213.902 261.642 213.663 260.79 213.31 259.984C213.143 259.548 212.817 259.191 212.398 258.985C211.979 258.779 211.497 258.74 211.05 258.874C210.68 259.024 211.14 259.874 211.05 261.544C210.98 263.624 210.3 264.774 210.79 266.984C210.961 267.816 210.829 268.681 210.42 269.424C208.42 273.224 201.83 280.244 197.21 285.304L179.66 269.454C173.66 264.054 171.72 261.624 165.93 262.014C167.741 262.701 169.41 263.718 170.85 265.014C173.54 267.284 172.9 280.274 172.9 280.274C172.9 280.274 192.82 294.554 194.9 295.914C195.2 296.114 195.51 296.294 195.81 296.464C196.793 296.977 197.921 297.142 199.01 296.933C200.099 296.724 201.086 296.154 201.81 295.314C206.06 290.454 212.26 280.884 215.81 275.914C217.433 273.508 218.88 270.989 220.14 268.374C223.7 261.304 223.31 257.924 220.93 255.524Z" fill="#914F4E"/>
<path d="M166.55 261.694C167.949 261.44 169.386 261.486 170.766 261.831C172.145 262.176 173.435 262.811 174.55 263.694C177.97 266.294 192.55 279.694 192.55 279.694C192.55 279.694 192.95 286.784 185.55 291.004L167.68 278.404L166.55 261.694Z" fill="#D7CB9D"/>
<path opacity="0.3" d="M166.55 261.694C167.949 261.44 169.386 261.486 170.766 261.831C172.145 262.176 173.435 262.811 174.55 263.694C177.97 266.294 192.55 279.694 192.55 279.694C192.55 279.694 192.95 286.784 185.55 291.004L167.68 278.404L166.55 261.694Z" fill="black"/>
<path d="M149.3 421.654H141.73V435.154H149.3V421.654Z" fill="#914F4E"/>
<path d="M167.98 420.934L175.55 421.204L175.93 406.914L167.98 406.644V420.934Z" fill="#914F4E"/>
<path d="M140.66 304.764C140.66 312.294 141.77 372.904 141.77 372.904C141.6 375.064 139.65 379.064 140.07 387.384C140.64 398.694 141.41 428.384 141.41 428.384C142.71 429.05 144.145 429.411 145.605 429.441C147.066 429.47 148.514 429.167 149.84 428.554C149.84 428.554 157 387.404 158.36 376.204C159.54 366.424 161.55 333.504 161.55 333.504L165.65 371.784C164.776 375.9 164.46 380.114 164.71 384.314C165.07 389.494 167.5 416.484 167.5 416.484C168.809 417.259 170.278 417.724 171.794 417.846C173.31 417.967 174.834 417.741 176.25 417.184C176.25 417.184 180.55 376.534 180.64 371.784C180.74 366.364 178.12 304.664 178.12 304.664L140.66 304.764Z" fill="#37474F"/>
<path d="M149.3 431.254V430.134C150.03 430.464 151.71 437.134 154.71 440.004C157.1 442.274 160.36 444.894 161.19 447.424C162.02 449.954 156.65 451.504 154.42 451.094C151.83 450.614 147.33 448.714 146.21 446.954C145.09 445.194 144.55 442.584 143.63 441.294C142.71 440.004 140.63 438.564 140.11 437.064C139.961 435.669 140.108 434.259 140.54 432.924C140.89 431.534 141.27 430.004 141.73 430.134V430.994C142.798 431.869 144.14 432.339 145.52 432.324C146.62 432.364 149.31 432.134 149.3 431.254Z" fill="#263238"/>
<path d="M175.63 418.774C176.02 418.774 176.34 419.364 177.21 420.344C178.496 421.696 180 422.822 181.66 423.674C184.5 425.154 190.01 427.434 192.51 428.604C194.07 429.334 193.99 431.294 192.38 432.404C190.77 433.514 186.88 434.324 182.21 433.244C179.67 432.644 176.35 430.244 174.21 430.334C172.07 430.424 168.21 430.434 166.64 429.334C165.07 428.234 165.71 425.844 166.15 423.814C166.63 421.584 167.23 418.114 167.93 418.264V419.034C168.84 420.474 173.54 421.034 175.54 420.034L175.63 418.774Z" fill="#263238"/>
<path d="M161.55 333.524C165.49 332.238 169.091 330.085 172.09 327.224C172.09 327.224 170.09 331.224 164.01 334.884L165.3 369.074L161.55 333.524Z" fill="#263238"/>
<path d="M144.6 263.694C144.6 263.694 138.68 264.234 139.1 275.524L140.41 293.524L140.29 320.524C145.85 326.834 170.54 326.374 178.99 320.014C178.99 320.014 178.12 288.084 177.55 275.794C177.14 267.064 175.13 262.664 166.55 261.704L155.99 262.164L144.6 263.694Z" fill="#D7CB9D"/>
<path opacity="0.3" d="M161.43 269.614L162.79 279.094L165.96 279.034L162.38 279.594L161.43 269.614Z" fill="black"/>
<path d="M125.81 302.454C128.88 277.754 135.95 265.454 144.56 264.034L143.95 279.834C140.365 288.261 137.618 297.02 135.75 305.984C134.62 312.064 133.31 322.634 133.65 327.824C133.718 328.739 134.108 329.6 134.75 330.254C136.45 331.984 136.96 333.484 138.1 335.434C139 336.964 139.92 337.504 139.68 337.874C139.371 338.263 138.922 338.516 138.429 338.58C137.936 338.643 137.438 338.512 137.04 338.214C136.138 337.575 135.312 336.833 134.58 336.004C134.47 338.358 134.894 340.707 135.82 342.874C137.82 347.034 137.5 349.224 131.92 347.994C128.42 347.234 125.92 343.544 124.92 334.934C124.657 331.721 124.6 328.494 124.75 325.274C125.13 317.044 125.2 307.394 125.81 302.454Z" fill="#914F4E"/>
<path d="M145.05 263.624C140.58 263.624 136.5 264.394 133.25 270.624C130.14 276.624 127.75 289.314 126.54 293.464C126.54 293.464 133.07 297.324 139.08 297.224L143.31 282.544C143.31 282.544 146.17 275.694 145.05 263.624Z" fill="#D7CB9D"/>
<path opacity="0.3" d="M145.05 263.624C140.58 263.624 136.5 264.394 133.25 270.624C130.14 276.624 127.75 289.314 126.54 293.464C126.54 293.464 133.07 297.324 139.08 297.224L143.31 282.544C143.31 282.544 146.17 275.694 145.05 263.624Z" fill="black"/>
<path d="M154.28 238.204C154.37 240.414 155.108 242.548 156.401 244.342C157.695 246.135 159.487 247.509 161.555 248.293C163.623 249.076 165.876 249.234 168.033 248.748C170.19 248.261 172.157 247.151 173.688 245.556C175.219 243.96 176.248 241.95 176.646 239.775C177.044 237.6 176.794 235.355 175.927 233.321C175.06 231.287 173.614 229.552 171.769 228.333C169.924 227.114 167.761 226.464 165.55 226.464C162.5 226.53 159.6 227.803 157.487 230.004C155.374 232.205 154.221 235.154 154.28 238.204Z" fill="#263238"/>
<path d="M147.11 244.074C147.11 244.074 148.84 252.534 149.53 253.924C149.98 254.775 150.744 255.417 151.66 255.714L151.53 249.714L147.11 244.074Z" fill="#263238"/>
<path d="M149.28 231.954C149.28 231.954 148 231.694 146.72 233.694C145.59 235.454 145.34 239.414 147.11 244.064L150.36 244.454L149.28 231.954Z" fill="#263238"/>
<path d="M151.34 244.464C150.69 244.874 149.76 243.564 148.95 242.694C148.14 241.824 145.52 240.614 144.21 243.494C142.9 246.374 145.36 250.304 147.43 250.974C151 252.144 151.53 249.754 151.53 249.754L151.81 263.164C156.54 270.484 167.27 270.224 163.41 262.804V258.694C164.999 258.958 166.612 259.046 168.22 258.954C170.84 258.534 172.49 256.374 173.29 253.414C174.57 248.664 175.05 244.834 173.97 235.494C172.78 225.254 161.35 225.144 155.17 229.194C148.99 233.244 151.34 244.464 151.34 244.464Z" fill="#914F4E"/>
<path d="M151.75 260.154C152.85 262.406 154.431 264.389 156.38 265.964C158.038 267.187 159.959 268.005 161.99 268.354C160.316 269.488 158.943 271.012 157.99 272.794C156.81 275.404 148.47 268.234 148.55 263.144C148.55 263.144 149.86 258.034 151.65 257.704L151.75 260.154Z" fill="#263238"/>
<path d="M162 268.354C162 268.354 164.57 267.074 163.42 262.804V258.694L164.55 258.844C165.867 260.127 166.802 261.751 167.25 263.534C167.51 264.704 168.15 270.624 167.02 271.794C165.89 272.964 164.3 268.694 162 268.354Z" fill="#263238"/>
<path d="M151.34 245.614C151.01 245.614 149.76 243.464 148.95 242.694C147.82 241.624 149.28 231.954 149.28 231.954C148.986 231.12 148.931 230.219 149.122 229.355C149.312 228.491 149.741 227.697 150.36 227.064C151.91 225.294 154.49 225.064 158.89 224.384C160.647 224.168 162.39 223.851 164.11 223.434C165.926 222.754 167.674 221.904 169.33 220.894C169.851 220.557 170.474 220.415 171.09 220.494C171.374 220.59 171.628 220.758 171.826 220.983C172.025 221.208 172.16 221.48 172.22 221.774C172.32 222.36 172.32 222.958 172.22 223.544C172.776 223.027 173.515 222.751 174.274 222.777C175.033 222.803 175.751 223.13 176.27 223.684C176.761 224.269 177.081 224.978 177.194 225.734C177.307 226.489 177.209 227.261 176.91 227.964C176.271 229.363 175.226 230.537 173.91 231.334C168.38 235.074 161.85 234.034 155.65 233.334C155.357 233.269 155.051 233.289 154.77 233.394C153.77 233.834 153.59 236.844 153.42 237.714C152.92 240.614 152.44 245.594 151.34 245.614Z" fill="#263238"/>
<path d="M149.28 232.464L145.34 230.254C145.459 229.981 145.635 229.736 145.855 229.535C146.075 229.334 146.335 229.182 146.618 229.087C146.901 228.993 147.2 228.959 147.497 228.988C147.793 229.017 148.081 229.107 148.34 229.254C148.864 229.58 149.249 230.088 149.423 230.68C149.596 231.272 149.545 231.907 149.28 232.464Z" fill="#263238"/>
<path d="M163.4 258.694C163.4 258.694 157.55 257.464 155.5 256.334C154.283 255.669 153.297 254.651 152.67 253.414C152.975 254.656 153.522 255.825 154.28 256.854C155.77 258.854 163.4 260.324 163.4 260.324V258.694Z" fill="#783736"/>
<path d="M161.28 242.594C161.287 242.754 161.262 242.914 161.207 243.065C161.151 243.216 161.067 243.354 160.958 243.472C160.85 243.59 160.719 243.685 160.573 243.752C160.428 243.82 160.27 243.858 160.11 243.864C159.786 243.846 159.483 243.702 159.264 243.463C159.045 243.223 158.929 242.908 158.94 242.584C158.94 242.274 159.063 241.976 159.283 241.757C159.502 241.537 159.8 241.414 160.11 241.414C160.42 241.414 160.718 241.537 160.937 241.757C161.157 241.976 161.28 242.274 161.28 242.584V242.594Z" fill="#263238"/>
<path d="M159.27 237.514L156.76 238.954C156.579 238.598 156.539 238.186 156.646 237.802C156.754 237.417 157.001 237.086 157.34 236.874C157.507 236.781 157.692 236.724 157.882 236.706C158.072 236.688 158.264 236.71 158.446 236.77C158.627 236.83 158.794 236.927 158.936 237.055C159.078 237.184 159.192 237.34 159.27 237.514Z" fill="#263238"/>
<path d="M162.87 251.384L165.55 252.434C165.497 252.618 165.407 252.789 165.285 252.937C165.163 253.084 165.012 253.205 164.841 253.292C164.67 253.378 164.483 253.428 164.292 253.439C164.101 253.45 163.909 253.421 163.73 253.354C163.365 253.195 163.073 252.903 162.913 252.538C162.754 252.173 162.738 251.76 162.87 251.384Z" fill="#783736"/>
<path d="M173 238.914L170.36 237.634C170.425 237.455 170.526 237.292 170.659 237.155C170.791 237.018 170.95 236.911 171.127 236.84C171.304 236.77 171.493 236.737 171.683 236.744C171.873 236.752 172.06 236.8 172.23 236.884C172.587 237.067 172.863 237.376 173.005 237.751C173.148 238.126 173.146 238.541 173 238.914Z" fill="#263238"/>
<path d="M171.27 242.594C171.285 242.758 171.266 242.922 171.214 243.078C171.162 243.233 171.077 243.376 170.967 243.498C170.856 243.619 170.722 243.716 170.572 243.782C170.421 243.848 170.259 243.883 170.095 243.883C169.931 243.883 169.769 243.848 169.618 243.782C169.468 243.716 169.334 243.619 169.223 243.498C169.113 243.376 169.028 243.233 168.976 243.078C168.924 242.922 168.905 242.758 168.92 242.594C168.913 242.434 168.938 242.275 168.994 242.125C169.049 241.975 169.133 241.837 169.242 241.72C169.351 241.603 169.482 241.509 169.627 241.442C169.773 241.376 169.93 241.339 170.09 241.334C170.413 241.347 170.717 241.487 170.938 241.722C171.159 241.958 171.278 242.271 171.27 242.594Z" fill="#263238"/>
<path d="M164.62 241.684L164.75 249.094L168.96 248.134L164.62 241.684Z" fill="#783736"/>
<path d="M159.47 239.534C158.693 239.534 157.948 239.843 157.398 240.392C156.849 240.942 156.54 241.687 156.54 242.464C156.54 243.241 156.849 243.987 157.398 244.536C157.948 245.086 158.693 245.394 159.47 245.394H160C160.777 245.394 161.522 245.086 162.072 244.536C162.621 243.987 162.93 243.241 162.93 242.464C162.93 241.687 162.621 240.942 162.072 240.392C161.522 239.843 160.777 239.534 160 239.534H159.47ZM156 242.464C155.992 241.538 156.352 240.646 157 239.984C157.649 239.322 158.533 238.945 159.46 238.934H160C160.849 239.046 161.629 239.462 162.194 240.106C162.759 240.75 163.071 241.578 163.071 242.434C163.071 243.291 162.759 244.118 162.194 244.762C161.629 245.406 160.849 245.823 160 245.934H159.47C158.551 245.929 157.672 245.562 157.022 244.912C156.373 244.262 156.005 243.383 156 242.464Z" fill="#263238"/>
<path d="M170 239.534C169.223 239.534 168.478 239.843 167.928 240.392C167.379 240.942 167.07 241.687 167.07 242.464C167.07 243.241 167.379 243.987 167.928 244.536C168.478 245.086 169.223 245.394 170 245.394H170.53C171.307 245.394 172.052 245.086 172.602 244.536C173.151 243.987 173.46 243.241 173.46 242.464C173.46 241.687 173.151 240.942 172.602 240.392C172.052 239.843 171.307 239.534 170.53 239.534H170ZM166.54 242.464C166.532 241.538 166.892 240.646 167.54 239.984C168.189 239.322 169.073 238.945 170 238.934H170.53C171.379 239.046 172.159 239.462 172.724 240.106C173.289 240.75 173.601 241.578 173.601 242.434C173.601 243.291 173.289 244.118 172.724 244.762C172.159 245.406 171.379 245.823 170.53 245.934H170C169.087 245.921 168.215 245.55 167.571 244.902C166.928 244.253 166.565 243.378 166.56 242.464H166.54Z" fill="#263238"/>
<path d="M163.42 241.764C163.629 241.474 163.904 241.237 164.222 241.072C164.54 240.907 164.892 240.818 165.25 240.814C165.545 240.782 165.844 240.822 166.121 240.93C166.397 241.038 166.644 241.211 166.84 241.434L167.31 241.074C167.06 240.769 166.738 240.532 166.373 240.383C166.008 240.235 165.612 240.18 165.22 240.224C164.766 240.229 164.32 240.343 163.919 240.557C163.519 240.771 163.176 241.079 162.92 241.454L163.42 241.764Z" fill="#263238"/>
<path d="M156.32 241.734H150.36V242.324H156.32V241.734Z" fill="#263238"/>
</svg>
