<svg width="69" height="93" viewBox="0 0 69 93" fill="none" xmlns="http://www.w3.org/2000/svg">
<path d="M35.448 92.896C28.8773 92.896 22.9893 91.8293 17.784 89.696C12.5787 87.5627 8.39733 84.4053 5.24 80.224C2.168 76.0427 0.546667 71.008 0.376 65.12H23.672C24.0133 68.448 25.1653 71.008 27.128 72.8C29.0907 74.5067 31.6507 75.36 34.808 75.36C38.0507 75.36 40.6107 74.6347 42.488 73.184C44.3653 71.648 45.304 69.5573 45.304 66.912C45.304 64.6933 44.536 62.8587 43 61.408C41.5493 59.9573 39.7147 58.7627 37.496 57.824C35.3627 56.8853 32.2907 55.8187 28.28 54.624C22.4773 52.832 17.7413 51.04 14.072 49.248C10.4027 47.456 7.24533 44.8107 4.6 41.312C1.95467 37.8133 0.632 33.248 0.632 27.616C0.632 19.2533 3.66133 12.7253 9.72 8.032C15.7787 3.25333 23.672 0.863998 33.4 0.863998C43.2987 0.863998 51.2773 3.25333 57.336 8.032C63.3947 12.7253 66.6373 19.296 67.064 27.744H43.384C43.2133 24.8427 42.1467 22.5813 40.184 20.96C38.2213 19.2533 35.704 18.4 32.632 18.4C29.9867 18.4 27.8533 19.1253 26.232 20.576C24.6107 21.9413 23.8 23.9467 23.8 26.592C23.8 29.4933 25.1653 31.7547 27.896 33.376C30.6267 34.9973 34.8933 36.7467 40.696 38.624C46.4987 40.5867 51.192 42.464 54.776 44.256C58.4453 46.048 61.6027 48.6507 64.248 52.064C66.8933 55.4773 68.216 59.872 68.216 65.248C68.216 70.368 66.8933 75.0187 64.248 79.2C61.688 83.3813 57.9333 86.7093 52.984 89.184C48.0347 91.6587 42.1893 92.896 35.448 92.896Z" fill="#FB8500"/>
</svg>
